<?xml version="1.0" encoding="utf-8"?>
<!-- Generator: Adobe Illustrator 23.0.5, SVG Export Plug-In . SVG Version: 6.00 Build 0)  -->
<svg version="1.1" id="Capa_1" xmlns="http://www.w3.org/2000/svg" xmlns:xlink="http://www.w3.org/1999/xlink" x="0px" y="0px"
	 viewBox="0 0 528.5 528.5" style="enable-background:new 0 0 528.5 528.5;" xml:space="preserve">
<style type="text/css">
	.st0{fill:#FFFFFF;}
</style>
<g>
	<g>
		<circle class="st0" cx="93.1" cy="182" r="27.1"/>
		<circle class="st0" cx="415.3" cy="178.3" r="27.1"/>
		<path class="st0" d="M311.9,377.3h9.6c5.3,0,9.6-4.3,9.6-9.6v-65.7h40.4c5.7,0,9.7-5.1,9.7-11.3v-7.5c0-6.2-4-10.4-9.7-10.4h-34.4
			c-3.3-20.4-21-36.1-42.4-36.1s-39.1,15.6-42.4,36.1h-5.5c-1.1-17.5-15.6-31.3-33.4-31.3s-32.2,13.8-33.4,31.3H138
			c-5.7,0-10.7,4.3-10.7,10.4v7.5c0,6.2,4.9,11.3,10.7,11.3h35.7v65.7c0,5.3,4.3,9.6,9.6,9.6h9.6c5.3,0,9.6-4.3,9.6-9.6v-35.3h99.8
			v35.3C302.3,373,306.6,377.3,311.9,377.3z M202.4,322.9v-20.8h99.8v20.8L202.4,322.9L202.4,322.9z"/>
		<path class="st0" d="M80.2,324.3c0-5.3-4.3-9.6-9.6-9.6H28.2L19,245.6c-0.7-5.2-5.5-8.9-10.7-8.2c-5.2,0.7-8.9,5.5-8.2,10.7
			l10.3,77.4c0.6,4.8,4.7,8.3,9.5,8.3h50.8C76,333.9,80.2,329.6,80.2,324.3z"/>
		<path class="st0" d="M457.8,333.9h50.8c4.8,0,8.8-3.5,9.5-8.3l10.3-77.4c0.7-5.2-3-10-8.2-10.7c-5.1-0.7-10,3-10.7,8.2l-9.2,69.1
			h-42.4c-5.3,0-9.6,4.3-9.6,9.6C448.2,329.6,452.5,333.9,457.8,333.9z"/>
		<path class="st0" d="M100.9,362.9c0,6.6,5.3,12,12,12c6.6,0,12-5.4,12-12v-42.4c0-3.9-1.9-7.6-5.1-9.8l-12.5-8.7
			c0.2-0.8,0.3-1.6,0.3-2.4V256l5.7,6.9c2.3,2.8,5.7,4.4,9.2,4.4H149c6.6,0,12-5.4,12-12s-5.4-12-12-12H128l-19.7-23.7
			c-2.5-3.1-6.2-4.5-9.9-4.3c-0.2,0-0.3-0.1-0.5-0.1H63.5c-5.3,0-9.6,4.3-9.6,9.6l-7.8,74.7c0,5.3,4.3,9.6,9.6,9.6h19.7l25.4,17.6
			L100.9,362.9L100.9,362.9L100.9,362.9z"/>
		<path class="st0" d="M402.2,320.4v42.4c0,6.6,5.4,12,12,12s12-5.4,12-12v-36.2l23.1-17.6h31.1c8.1,0,10.4-7.3,8.5-12.3l-29.6-72
			c-2.1-5.9-5.7-9.6-9.6-9.6h-36.4c-2.3,0-4.5,0.9-6.1,2.3c-0.8,0.6-1.6,1.3-2.3,2.1L385,243.3H364c-6.6,0-12,5.4-12,12
			s5.4,12,12,12h26.6c3.6,0,7-1.6,9.2-4.4l4-4.9L385,297.8c-4.7,6.8-0.5,11.2,4,11.2h20.4l-2,1.5
			C404.1,312.8,402.2,316.5,402.2,320.4z"/>
		<circle class="st0" cx="213.2" cy="217.7" r="19.1"/>
		<circle class="st0" cx="292.9" cy="201.8" r="27.1"/>
	</g>
</g>
</svg>
